<svg width="72" height="28" viewBox="0 0 72 28" fill="none" xmlns="http://www.w3.org/2000/svg">
<path d="M72 9.92584C68.0802 12.4124 64.1547 14.8922 60.2349 17.3788C59.6733 17.734 59.0949 18.096 58.4772 18.1097C57.8594 18.1234 57.1912 17.6998 56.9834 16.9074C56.6464 15.6231 57.6292 14.455 58.4772 13.7309C60.044 12.4056 61.6108 11.0735 63.1776 9.74823C57.5394 9.64576 51.8955 9.62527 46.2572 9.68675C38.4625 9.76872 30.606 10.001 22.9854 12.2553C15.3704 14.5096 7.92387 18.9363 2.3867 26.396C1.72965 27.2841 0.881676 28.2951 3.51352e-09 27.9194C0.0224611 24.6677 1.85882 22.0035 3.71764 19.9541C9.86131 13.1707 17.4876 9.18123 25.271 7.21383C33.0545 5.24642 41.0289 5.21227 48.9416 5.68362C54.7595 6.02519 60.5663 6.64 66.3505 7.52124C63.0653 5.95005 60.044 3.36099 57.5899 3.18317e-06C63.1327 0.35523 68.5126 4.06461 72 9.93267L72 9.92584ZM59.7913 13.5669C59.8474 13.683 59.9878 13.683 60.044 13.5669C59.9878 13.4508 59.8474 13.4508 59.7913 13.5669ZM61.0773 13.0477C61.0773 13.1229 61.184 13.1229 61.184 13.0477C61.1784 12.9794 61.0773 12.9726 61.0773 13.0477ZM61.5939 12.1323C61.5939 12.187 61.6108 12.2348 61.6501 12.2553C61.7737 12.3441 61.8972 12.0162 61.768 11.9274C61.6782 11.8659 61.5939 12.0094 61.5939 12.1323ZM63.7504 10.6226C63.8066 10.7388 63.947 10.7388 64.0031 10.6226C63.947 10.5065 63.8066 10.5065 63.7504 10.6226ZM64.2558 10.445C64.2951 10.527 64.3794 10.5612 64.4468 10.527L64.4468 10.5407C64.5085 10.527 64.4917 10.3767 64.4299 10.3562C64.3681 10.3357 64.3064 10.3972 64.2558 10.4519L64.2558 10.445ZM64.9185 10.2742C64.9185 10.3084 64.9297 10.3426 64.9578 10.3494C65.014 10.3494 65.0083 10.2059 64.9578 10.1991C64.9297 10.1991 64.9185 10.2401 64.9185 10.2742ZM64.0144 9.92584C64.0144 10.001 64.1154 10.001 64.1211 9.92584C64.1211 9.85753 64.0144 9.8507 64.0144 9.92584ZM2.51025 22.2904C2.4204 22.4476 2.36985 22.6662 2.24068 22.755C2.32492 22.8916 2.51587 22.8301 2.54395 22.6593L2.56079 22.6593C2.6675 22.5227 2.76857 22.3792 2.87527 22.2358C2.8135 22.0513 2.6001 22.1265 2.51025 22.2904ZM62.2454 7.5144C62.1611 7.5349 62.1106 7.65103 62.1106 7.76716C62.1106 7.82181 62.1218 7.86963 62.1499 7.91062C62.2341 8.03358 62.4139 7.98576 62.4532 7.82864C62.4925 7.67152 62.3689 7.48025 62.251 7.5144L62.2454 7.5144ZM3.39755 21.3682C3.39755 21.4434 3.50424 21.4434 3.50424 21.3682C3.49863 21.2999 3.39755 21.2999 3.39755 21.3682ZM4.13882 20.1591L4.15006 20.1591C4.06582 20.2889 3.98158 20.4187 3.89735 20.5485C4.2006 20.5485 4.47577 20.1796 4.487 19.7697C4.3466 19.6126 4.17814 19.92 4.13882 20.1591ZM4.6667 19.6741C4.64986 19.7151 4.63863 19.7629 4.63863 19.8107C4.63863 19.9063 4.67233 19.9951 4.7341 20.043C4.84641 19.9678 4.92504 19.8039 4.93066 19.6331L4.94189 19.5989C4.85765 19.5169 4.72286 19.5579 4.6667 19.6741ZM5.42485 18.7655C5.46977 18.8475 5.54839 18.8816 5.61578 18.8475L5.61578 18.8543C5.67755 18.8406 5.66071 18.6904 5.59893 18.6699C5.53716 18.6494 5.47539 18.704 5.42485 18.7587L5.42485 18.7655ZM6.31776 17.734C6.43569 17.8501 6.53115 18.0004 6.59292 18.178C6.90179 18.1234 7.18259 17.8706 7.34544 17.5086C6.99726 17.4881 6.64908 17.57 6.32336 17.7408L6.31776 17.734ZM7.35106 17.0372C7.35106 17.1123 7.45776 17.1123 7.45776 17.0372C7.45776 16.9621 7.35106 16.9621 7.35106 17.0372ZM8.42929 16.9416C8.47983 16.9416 8.48544 16.7981 8.42929 16.7913C8.37313 16.7913 8.37874 16.9347 8.42929 16.9416ZM7.7947 16.5932C7.84525 16.5863 7.84525 16.4497 7.7947 16.4429C7.73854 16.4429 7.74416 16.5863 7.7947 16.5932ZM8.37313 16.1833C8.45175 16.3062 8.6483 16.2448 8.62584 16.0808L8.62584 16.0672C8.72131 16.1355 8.85609 16.0672 8.88978 15.9374C8.70446 15.9374 8.51914 16.0193 8.37313 16.1765L8.37313 16.1833ZM10.6588 14.9605C10.7655 15.0835 10.9395 15.0834 11.0519 14.9673L11.0519 14.9537C10.9395 14.8307 10.7655 14.8375 10.6588 14.9605ZM11.0406 14.0861L11.0519 14.1202C10.9171 14.1681 10.7767 14.2159 10.6419 14.2637C10.8946 14.4345 11.2259 14.3525 11.4281 14.0793C11.3158 13.97 11.153 13.9768 11.0462 14.0929L11.0406 14.0861ZM12.321 13.6625C12.321 13.7309 12.3435 13.7992 12.3828 13.8333C12.467 13.7582 12.467 13.5669 12.3828 13.4918C12.3379 13.5259 12.321 13.5942 12.321 13.6625ZM13.6576 13.157C13.5733 13.1912 13.5116 13.3005 13.4835 13.4166C13.5172 13.4918 13.6014 13.5191 13.6576 13.4781L13.68 13.4508C13.7418 13.5396 13.871 13.4371 13.8597 13.3142C13.8485 13.1912 13.7418 13.116 13.6576 13.1502L13.6576 13.157ZM13.4554 12.8086C13.4554 12.8086 13.4554 12.8496 13.4667 12.8701C13.5116 12.9931 13.6464 12.9726 13.7306 12.9043C13.8148 12.8291 13.8935 12.7198 13.9889 12.7198C13.9272 12.672 13.8654 12.631 13.8036 12.59L13.7868 12.6379C13.6576 12.59 13.4554 12.6652 13.4554 12.8086ZM16.8361 11.0803C16.2465 11.2238 15.6905 11.5312 15.1402 11.8386C14.9548 11.9411 14.7695 12.0435 14.5842 12.1528C14.4831 12.2075 14.3708 12.3441 14.3708 12.4671C14.3708 12.5012 14.382 12.5354 14.4045 12.5695C14.4775 12.6584 14.5898 12.5832 14.6684 12.5081C15.1907 12.0367 15.7972 11.7635 16.3981 11.497C16.6171 11.4014 16.8417 11.2989 17.0607 11.2033C17.0551 11.0872 16.9316 11.0667 16.8417 11.0872L16.8361 11.0803ZM17.6729 10.6226C17.7234 10.6773 17.7852 10.7388 17.847 10.7183C17.9087 10.6978 17.9256 10.5475 17.8638 10.5338L17.8638 10.5475C17.7964 10.5133 17.7122 10.5475 17.6729 10.6295L17.6729 10.6226ZM18.5939 10.3699C18.5939 10.4314 18.6107 10.486 18.6388 10.527C18.7286 10.6431 18.9027 10.5816 18.9364 10.4177C18.9701 10.2537 18.8353 10.083 18.7174 10.1239C18.6388 10.1513 18.5939 10.2606 18.5939 10.3699ZM19.3576 10.1035C19.3576 10.1376 19.3688 10.1718 19.3969 10.1786C19.4531 10.1718 19.4475 10.0351 19.3969 10.0283C19.3688 10.0283 19.3576 10.0693 19.3576 10.1035ZM20.9469 9.21539C20.5257 9.27687 20.127 9.57062 19.863 10.0146C20.082 9.9395 20.2954 9.86436 20.5145 9.78922C21.194 9.55012 21.8791 9.31103 22.5586 9.07876C22.6035 9.0651 22.6541 9.03778 22.6597 8.9763C22.2104 8.96263 21.7668 9.05144 21.34 9.24271C21.2108 9.3042 21.0424 9.35884 20.9469 9.22222L20.9469 9.21539ZM23.5695 8.72354L23.5358 8.75086C23.6818 8.8465 23.8783 8.73037 23.9232 8.5186C23.7941 8.4093 23.6031 8.52543 23.5695 8.72354ZM65.4801 8.15655C65.963 8.39564 66.519 8.36148 66.9851 8.05408C66.6257 7.71934 66.1259 8.29317 65.7103 8.10189C65.2442 7.89012 64.7388 7.84914 64.2614 7.98576C64.5703 8.23169 64.9466 8.3 65.2947 8.17704C65.3565 8.15655 65.4239 8.12239 65.4857 8.15655L65.4801 8.15655ZM63.9975 8.04041C63.7111 7.74667 63.3124 7.66469 62.9698 7.82864C63.2562 8.12239 63.6549 8.20436 63.9975 8.04041ZM26.0909 8.01992C26.1359 8.10189 26.2145 8.13605 26.2819 8.10189L26.2819 8.10872C26.3437 8.09506 26.3268 7.94477 26.265 7.92428C26.2033 7.90379 26.1415 7.95844 26.0909 8.01992ZM27.6297 7.67835C27.7757 7.77399 27.9217 7.87646 28.0621 7.9721L28.0845 7.9721C28.1856 7.86963 28.1126 7.61687 27.9947 7.56905C27.8711 7.52123 27.7476 7.59638 27.6297 7.67835ZM29.028 7.50757C29.0785 7.56222 29.1403 7.6237 29.2021 7.60321C29.2639 7.58272 29.2807 7.43243 29.2189 7.41877L29.2189 7.4256C29.1515 7.39144 29.0673 7.4256 29.028 7.50757ZM57.7359 7.34362C57.8594 7.38461 57.9774 7.46659 58.0672 7.58272C58.1459 7.50757 58.1459 7.3163 58.0616 7.24799C57.9493 7.20017 57.8201 7.23432 57.7359 7.33679L57.7359 7.34362ZM29.7917 7.33679C29.8984 7.45975 30.0725 7.45975 30.1849 7.33679L30.2017 7.32313C30.1848 7.24798 30.1624 7.16601 30.1399 7.09086C30.022 7.17284 29.9097 7.25481 29.7974 7.33679L29.7917 7.33679ZM30.8194 7.15918C30.8756 7.27531 31.0216 7.27531 31.0721 7.15918C31.016 7.04305 30.8756 7.04305 30.8194 7.15918ZM32.9703 6.75613C32.5828 6.83128 32.1953 6.90642 31.8078 6.98156C32.3245 7.16601 32.8917 7.0977 33.3802 6.79712C33.2567 6.70148 33.1107 6.72881 32.9703 6.75613ZM43.7021 6.46922C43.7526 6.52387 43.8144 6.58535 43.8761 6.56486C43.9379 6.54436 43.9604 6.39407 43.893 6.38041L43.893 6.39408C43.8256 6.35992 43.7414 6.39407 43.7021 6.47605L43.7021 6.46922ZM40.3831 6.46922C40.327 6.35309 40.1866 6.35309 40.1304 6.46922C40.1866 6.58535 40.327 6.58535 40.3831 6.46922ZM40.8885 6.46922C40.8885 6.39408 40.7818 6.39408 40.7818 6.46922C40.7818 6.54436 40.8829 6.54436 40.8885 6.46922ZM41.0345 6.46922C41.0345 6.46922 41.0233 6.51021 41.0233 6.52387C41.0233 6.66732 41.2199 6.78346 41.276 6.62634C41.3378 6.45556 41.0963 6.29161 41.0345 6.46239L41.0345 6.46922ZM39.7485 6.64C39.6868 6.46239 39.4397 6.64 39.5071 6.80395C39.5688 6.97473 39.8103 6.80395 39.7485 6.63317L39.7485 6.64ZM34.8403 6.72198L34.8403 6.72881C34.7673 6.69465 34.6831 6.72881 34.6438 6.81761C34.7336 6.89276 34.846 6.94741 34.9414 6.88593C35.0369 6.82445 35.065 6.59901 34.9639 6.5512C34.9246 6.60584 34.8796 6.66049 34.8347 6.72198L34.8403 6.72198ZM52.0359 6.81078C51.6821 6.66733 51.3058 6.66733 50.952 6.81078C51.3058 6.95424 51.6821 6.95424 52.0359 6.81078ZM35.5311 6.64C35.5311 6.56486 35.43 6.56486 35.4244 6.64C35.4244 6.70831 35.5311 6.71515 35.5311 6.64ZM38.7208 6.55803C38.85 6.51021 38.9904 6.53753 39.1027 6.63317C39.1701 6.68782 39.2375 6.7698 39.3105 6.72881C39.3947 6.68099 39.3835 6.50337 39.3105 6.4214C39.2375 6.34626 39.142 6.34626 39.0522 6.34626C38.9174 6.34626 38.7545 6.38724 38.7152 6.55803L38.7208 6.55803ZM41.9106 6.45556C42.0005 6.55803 42.1296 6.59218 42.2419 6.54436C42.3599 6.59218 42.489 6.55803 42.5789 6.44873C42.3711 6.33259 42.124 6.33259 41.9162 6.44873L41.9106 6.45556ZM44.3198 6.46922C44.623 6.56486 44.9319 6.59218 45.2408 6.54436C45.2576 6.44873 45.1678 6.39407 45.0948 6.38041C44.8364 6.33942 44.5669 6.36675 44.3198 6.46922ZM45.5047 6.67416C45.8417 6.76297 46.1955 6.75613 46.5324 6.66049C46.3583 6.56486 46.1898 6.44189 45.9989 6.41457C45.8136 6.38041 45.6002 6.46239 45.5047 6.68099L45.5047 6.67416ZM48.6889 6.64683C48.599 6.48288 48.3744 6.51021 48.307 6.69465L48.3688 6.71515C48.4755 6.7493 48.5934 6.72881 48.6889 6.64683ZM48.9753 6.5307C48.9753 6.5307 48.9753 6.55803 48.9753 6.57169C48.9753 6.70831 49.1831 6.76297 49.1943 6.60585L49.0146 6.52387L48.9753 6.53753L48.9753 6.5307ZM50.3455 6.70148L50.3455 6.72198C50.3455 6.89276 50.5702 6.93375 50.6039 6.7698C50.4803 6.7698 50.3568 6.68782 50.2781 6.5512C50.2107 6.59218 50.2837 6.76297 50.3455 6.70148ZM53.0243 6.70148C52.9063 6.67416 52.7659 6.65366 52.6817 6.77663C52.6648 6.80395 52.6592 6.83811 52.6592 6.87227C52.6592 6.99523 52.7547 7.13185 52.8221 7.03622C52.9456 6.87226 53.1478 6.87909 53.3107 6.95424C53.4735 7.02938 53.6251 7.16601 53.7936 7.22066C53.8161 7.22749 53.8442 7.23432 53.8666 7.22066C53.9396 7.19333 53.9452 7.04988 53.8947 6.97473C53.8442 6.89959 53.7655 6.8791 53.6925 6.8586C53.4679 6.80395 53.2433 6.7493 53.0243 6.70148ZM54.1755 6.98156C54.226 7.03622 54.2878 7.0977 54.3496 7.0772C54.4114 7.05671 54.4338 6.90642 54.3664 6.89276L54.3664 6.90642C54.299 6.87227 54.2148 6.90642 54.1755 6.98839L54.1755 6.98156ZM55.1976 6.98156C55.4053 7.10453 55.63 7.17967 55.8602 7.19333C55.776 7.13185 55.6918 7.0772 55.6075 7.01572L55.6075 7.04305C55.5289 6.8586 55.3099 6.82444 55.2032 6.98156L55.1976 6.98156ZM57.208 7.06354C56.9104 7.03621 56.6127 7.06354 56.3207 7.13185C56.4836 7.207 56.6408 7.28897 56.8037 7.36412L56.8037 7.41877C56.9048 7.34362 57.0339 7.4256 57.1575 7.43243C57.281 7.43243 57.427 7.26165 57.3484 7.13185C57.3147 7.07721 57.2586 7.06354 57.2024 7.06354L57.208 7.06354ZM58.7074 7.24799C58.6457 7.207 58.567 7.24115 58.5277 7.3163C58.6063 7.56222 58.8647 7.66469 59.0275 7.5144C58.9658 7.35728 58.8422 7.24799 58.713 7.22749L58.713 7.25482L58.7074 7.24799ZM59.7913 7.3163C59.679 7.20016 59.5105 7.20016 59.4038 7.3163C59.4431 7.39827 59.5273 7.43926 59.5947 7.4051C59.6677 7.43926 59.752 7.4051 59.7913 7.3163ZM60.5269 7.4256C60.9201 7.73984 61.3918 7.80132 61.841 7.85597C61.8635 7.85597 61.886 7.85597 61.9084 7.85597C61.959 7.83547 61.9814 7.73984 61.9477 7.67836C61.9197 7.63054 61.8691 7.61687 61.8242 7.61004C61.3918 7.54856 60.9594 7.48708 60.5269 7.4256ZM69.1023 6.80395C69.2988 6.93375 69.501 7.06354 69.6975 7.1865C69.7649 7.17967 69.6751 7.04988 69.6077 7.06354L69.6358 7.03622C69.5347 6.85177 69.4224 6.68782 69.2932 6.53753C69.2314 6.62634 69.164 6.71515 69.1023 6.80395ZM68.4621 5.90906C68.6081 6.19597 68.8776 6.35992 69.1303 6.3121L68.8608 6.14815L68.8383 6.19597C68.8383 5.95687 68.6081 5.79292 68.4621 5.90906ZM66.2944 4.8912C66.3505 5.00733 66.4965 5.00733 66.5471 4.8912C66.4909 4.77506 66.3505 4.77506 66.2944 4.8912ZM64.3738 3.40198L64.3906 3.42248C64.3906 3.42248 64.385 3.44297 64.385 3.45663C64.385 3.53177 64.4973 3.58642 64.5142 3.49079C64.4355 3.43614 64.3681 3.34733 64.3288 3.23803C64.2558 3.26535 64.3176 3.46346 64.3794 3.40198L64.3738 3.40198ZM63.6269 2.45926C63.6269 2.53441 63.7336 2.53441 63.7336 2.45926C63.7336 2.38412 63.6325 2.38412 63.6269 2.45926ZM60.3978 1.41408C60.8246 1.72832 61.3525 1.74198 61.7793 2.05622C62.032 2.24066 62.3352 2.53441 62.5711 2.30897C62.0881 2.04255 61.6052 1.77613 61.1222 1.50972C60.8864 1.37992 60.6168 1.25013 60.3922 1.40725L60.3978 1.41408ZM60.0384 1.14766L60.0552 1.16815C60.0552 1.16815 60.0496 1.18865 60.0496 1.20231C60.0496 1.27746 60.1619 1.33211 60.1788 1.2433C60.0945 1.18865 60.0328 1.09984 59.9934 0.990535C59.9204 1.01103 59.9822 1.21597 60.044 1.15449L60.0384 1.14766ZM59.4712 0.894899L59.4656 0.908565C59.4656 0.922227 59.4824 0.929059 59.4993 0.929059C59.5161 0.929059 59.5329 0.929056 59.5329 0.894899C59.5329 0.840249 59.4768 0.812929 59.4319 0.812929L59.4206 0.812929C59.3757 0.512353 59.0612 0.368894 58.8928 0.560169C59.0556 0.758275 59.2634 0.87441 59.4824 0.888072L59.4712 0.894899Z" fill="#00A9BD"/>
</svg>
