<svg width="78" height="28" viewBox="0 0 78 28" fill="none" xmlns="http://www.w3.org/2000/svg">
<path d="M7.87989e-07 9.92583C4.24647 12.4124 8.49903 14.8922 12.7455 17.3788C13.3539 17.734 13.9805 18.096 14.6497 18.1097C15.3189 18.1234 16.0429 17.6998 16.268 16.9074C16.633 15.6231 15.5684 14.455 14.6497 13.7309C12.9523 12.4056 11.255 11.0735 9.5576 9.74822C15.6657 9.64575 21.7799 9.62526 27.888 9.68674C36.3323 9.76872 44.8435 10.001 53.0991 12.2553C61.3487 14.5096 69.4158 18.9363 75.4144 26.396C76.1262 27.2841 77.0448 28.2951 78 27.9194C77.9757 24.6677 75.9863 22.0035 73.9725 19.9541C67.3169 13.1707 59.0551 9.18123 50.623 7.21382C42.1909 5.24642 33.552 5.21226 24.98 5.68362C18.6772 6.02518 12.3866 6.64 6.12028 7.52123C9.67928 5.95004 12.9523 3.36098 15.611 -3.13054e-06C9.60627 0.355221 3.77802 4.0646 7.87692e-07 9.93267L7.87989e-07 9.92583ZM13.2261 13.5669C13.1653 13.683 13.0132 13.683 12.9523 13.5669C13.0132 13.4508 13.1653 13.4508 13.2261 13.5669ZM11.8329 13.0477C11.8329 13.1229 11.7173 13.1229 11.7173 13.0477C11.7234 12.9794 11.8329 12.9726 11.8329 13.0477ZM11.2732 12.1323C11.2732 12.187 11.255 12.2348 11.2124 12.2553C11.0785 12.3441 10.9447 12.0162 11.0846 11.9274C11.182 11.8659 11.2732 12.0094 11.2732 12.1323ZM8.93706 10.6226C8.87622 10.7388 8.72413 10.7388 8.66329 10.6226C8.72413 10.5065 8.87622 10.5065 8.93706 10.6226ZM8.38952 10.445C8.34693 10.527 8.25568 10.5611 8.18267 10.527L8.18267 10.5407C8.11575 10.527 8.134 10.3767 8.20092 10.3562C8.26784 10.3357 8.33477 10.3972 8.38952 10.4518L8.38952 10.445ZM7.67163 10.2742C7.67163 10.3084 7.65947 10.3425 7.62905 10.3494C7.56821 10.3494 7.57429 10.2059 7.62905 10.1991C7.65947 10.1991 7.67163 10.2401 7.67163 10.2742ZM8.65112 9.92584C8.65112 10.001 8.54161 10.001 8.53553 9.92584C8.53553 9.85752 8.65112 9.85069 8.65112 9.92584ZM75.2806 22.2904C75.3779 22.4476 75.4327 22.6662 75.5726 22.755C75.4813 22.8916 75.2745 22.8301 75.2441 22.6593L75.2258 22.6593C75.1102 22.5227 75.0007 22.3792 74.8851 22.2358C74.952 22.0513 75.1832 22.1265 75.2806 22.2904ZM10.5675 7.5144C10.6588 7.53489 10.7135 7.65102 10.7135 7.76715C10.7135 7.8218 10.7014 7.86962 10.6709 7.91061C10.5797 8.03358 10.385 7.98575 10.3424 7.82863C10.2998 7.67151 10.4337 7.48024 10.5614 7.5144L10.5675 7.5144ZM74.3193 21.3682C74.3193 21.4434 74.2037 21.4434 74.2037 21.3682C74.2098 21.2999 74.3193 21.2999 74.3193 21.3682ZM73.5163 20.1591L73.5041 20.1591C73.5954 20.2889 73.6866 20.4187 73.7779 20.5485C73.4493 20.5485 73.1512 20.1796 73.1391 19.7697C73.2912 19.6126 73.4737 19.92 73.5163 20.1591ZM72.9444 19.6741C72.9626 19.7151 72.9748 19.7629 72.9748 19.8107C72.9748 19.9063 72.9383 19.9951 72.8714 20.043C72.7497 19.9678 72.6645 19.8039 72.6585 19.6331L72.6463 19.5989C72.7375 19.5169 72.8836 19.5579 72.9444 19.6741ZM72.1231 18.7655C72.0744 18.8475 71.9892 18.8816 71.9162 18.8475L71.9162 18.8543C71.8493 18.8407 71.8676 18.6904 71.9345 18.6699C72.0014 18.6494 72.0683 18.704 72.1231 18.7587L72.1231 18.7655ZM71.1558 17.734C71.028 17.8501 70.9246 18.0004 70.8577 18.178C70.5231 18.1234 70.2189 17.8706 70.0424 17.5086C70.4196 17.4881 70.7968 17.57 71.1497 17.7408L71.1558 17.734ZM70.0364 17.0372C70.0364 17.1123 69.9208 17.1123 69.9208 17.0372C69.9208 16.9621 70.0364 16.9621 70.0364 17.0372ZM68.8683 16.9416C68.8135 16.9416 68.8074 16.7981 68.8683 16.7913C68.9291 16.7913 68.923 16.9347 68.8683 16.9416ZM69.5557 16.5932C69.501 16.5863 69.501 16.4497 69.5557 16.4429C69.6166 16.4429 69.6105 16.5863 69.5557 16.5932ZM68.9291 16.1833C68.8439 16.3062 68.631 16.2448 68.6553 16.0808L68.6553 16.0672C68.5519 16.1355 68.4059 16.0672 68.3694 15.9374C68.5702 15.9374 68.7709 16.0193 68.9291 16.1765L68.9291 16.1833ZM66.453 14.9605C66.3374 15.0835 66.1488 15.0835 66.0272 14.9673L66.0272 14.9537C66.1488 14.8307 66.3374 14.8375 66.453 14.9605ZM66.0393 14.0861L66.0272 14.1202C66.1732 14.1681 66.3253 14.2159 66.4713 14.2637C66.1975 14.4345 65.8386 14.3525 65.6195 14.0793C65.7412 13.97 65.9176 13.9768 66.0332 14.0929L66.0393 14.0861ZM64.6522 13.6625C64.6522 13.7309 64.6279 13.7992 64.5853 13.8333C64.494 13.7582 64.494 13.5669 64.5853 13.4918C64.634 13.5259 64.6522 13.5942 64.6522 13.6625ZM63.2043 13.157C63.2955 13.1912 63.3625 13.3005 63.3929 13.4166C63.3564 13.4918 63.2651 13.5191 63.2043 13.4781L63.1799 13.4508C63.113 13.5396 62.9731 13.4371 62.9853 13.3142C62.9974 13.1912 63.113 13.116 63.2043 13.1502L63.2043 13.157ZM63.4233 12.8086C63.4233 12.8086 63.4233 12.8496 63.4111 12.8701C63.3625 12.9931 63.2164 12.9726 63.1252 12.9043C63.0339 12.8291 62.9488 12.7198 62.8453 12.7198C62.9123 12.672 62.9792 12.631 63.0461 12.59L63.0644 12.6379C63.2043 12.59 63.4233 12.6652 63.4233 12.8086ZM59.7609 11.0803C60.3997 11.2238 61.002 11.5312 61.5982 11.8386C61.7989 11.9411 61.9997 12.0435 62.2005 12.1528C62.31 12.2075 62.4316 12.3441 62.4316 12.4671C62.4316 12.5012 62.4195 12.5354 62.3951 12.5695C62.3161 12.6583 62.1944 12.5832 62.1092 12.5081C61.5434 12.0367 60.8864 11.7635 60.2354 11.497C59.9981 11.4014 59.7548 11.2989 59.5175 11.2033C59.5236 11.0872 59.6574 11.0667 59.7548 11.0872L59.7609 11.0803ZM58.8544 10.6226C58.7996 10.6773 58.7327 10.7388 58.6658 10.7183C58.5989 10.6978 58.5806 10.5475 58.6475 10.5338L58.6475 10.5475C58.7205 10.5133 58.8118 10.5475 58.8544 10.6295L58.8544 10.6226ZM57.8566 10.3699C57.8566 10.4314 57.8384 10.486 57.808 10.527C57.7106 10.6431 57.522 10.5816 57.4855 10.4177C57.449 10.2537 57.595 10.083 57.7228 10.1239C57.808 10.1513 57.8566 10.2606 57.8566 10.3699ZM57.0293 10.1035C57.0293 10.1376 57.0171 10.1718 56.9867 10.1786C56.9258 10.1718 56.9319 10.0351 56.9867 10.0283C57.0171 10.0283 57.0293 10.0693 57.0293 10.1035ZM55.3075 9.21539C55.7638 9.27687 56.1958 9.57061 56.4817 10.0146C56.2445 9.9395 56.0133 9.86436 55.776 9.78921C55.0399 9.55012 54.2976 9.31102 53.5615 9.07876C53.5128 9.0651 53.4581 9.03777 53.452 8.97629C53.9387 8.96263 54.4193 9.05143 54.8817 9.24271C55.0216 9.30419 55.2041 9.35884 55.3075 9.22222L55.3075 9.21539ZM52.4664 8.72353L52.5029 8.75086C52.3447 8.8465 52.1318 8.73037 52.0832 8.5186C52.2231 8.4093 52.4299 8.52543 52.4664 8.72353ZM7.06326 8.15654C6.54005 8.39563 5.93776 8.36148 5.43281 8.05407C5.82217 7.71934 6.36363 8.29316 6.81383 8.10189C7.31878 7.89012 7.86631 7.84913 8.38343 7.98576C8.04883 8.23168 7.64122 8.29999 7.26402 8.17703C7.1971 8.15654 7.12409 8.12238 7.05717 8.15654L7.06326 8.15654ZM8.66937 8.04041C8.97964 7.74666 9.41159 7.66468 9.7827 7.82863C9.47243 8.12238 9.04048 8.20436 8.66937 8.04041ZM49.7348 8.01991C49.6862 8.10189 49.601 8.13604 49.528 8.10189L49.528 8.10872C49.461 8.09506 49.4793 7.94477 49.5462 7.92428C49.6131 7.90378 49.6801 7.95843 49.7348 8.01991ZM48.0679 7.67835C47.9097 7.77399 47.7515 7.87646 47.5994 7.9721L47.5751 7.9721C47.4656 7.86963 47.5447 7.61687 47.6724 7.56905C47.8063 7.52123 47.9401 7.59637 48.0679 7.67835ZM46.553 7.50757C46.4982 7.56222 46.4313 7.6237 46.3644 7.6032C46.2975 7.58271 46.2792 7.43242 46.3462 7.41876L46.3462 7.42559C46.4192 7.39143 46.5104 7.42559 46.553 7.50757ZM15.4528 7.34362C15.3189 7.3846 15.1912 7.46658 15.0938 7.58271C15.0087 7.50757 15.0087 7.31629 15.0999 7.24798C15.2216 7.20016 15.3615 7.23432 15.4528 7.33679L15.4528 7.34362ZM45.7256 7.33679C45.61 7.45975 45.4214 7.45975 45.2997 7.33679L45.2815 7.32312C45.2997 7.24798 45.3241 7.166 45.3484 7.09086C45.4762 7.17283 45.5979 7.25481 45.7195 7.33679L45.7256 7.33679ZM44.6123 7.15917C44.5514 7.2753 44.3933 7.2753 44.3385 7.15917C44.3993 7.04304 44.5514 7.04304 44.6123 7.15917ZM42.2822 6.75613C42.702 6.83127 43.1218 6.90642 43.5415 6.98156C42.9818 7.166 42.3674 7.09769 41.8381 6.79712C41.9719 6.70148 42.1301 6.7288 42.2822 6.75613ZM30.6561 6.46921C30.6014 6.52386 30.5344 6.58535 30.4675 6.56485C30.4006 6.54436 30.3763 6.39407 30.4493 6.38041L30.4493 6.39407C30.5223 6.35991 30.6135 6.39407 30.6561 6.47604L30.6561 6.46921ZM34.2516 6.46921C34.3125 6.35308 34.4646 6.35308 34.5254 6.46921C34.4646 6.58535 34.3125 6.58535 34.2516 6.46921ZM33.7041 6.46921C33.7041 6.39407 33.8197 6.39407 33.8197 6.46921C33.8197 6.54436 33.7102 6.54436 33.7041 6.46921ZM33.5459 6.46921C33.5459 6.46921 33.5581 6.5102 33.5581 6.52386C33.5581 6.66732 33.3451 6.78345 33.2843 6.62633C33.2174 6.45555 33.479 6.2916 33.5459 6.46238L33.5459 6.46921ZM34.9391 6.64C35.006 6.46238 35.2737 6.63999 35.2007 6.80395C35.1338 6.97473 34.8722 6.80395 34.9391 6.63316L34.9391 6.64ZM40.2563 6.72197L40.2563 6.7288C40.3354 6.69465 40.4266 6.7288 40.4692 6.81761C40.3719 6.89275 40.2502 6.9474 40.1468 6.88592C40.0434 6.82444 40.013 6.59901 40.1225 6.55119C40.165 6.60584 40.2137 6.66049 40.2624 6.72197L40.2563 6.72197ZM21.6278 6.81078C22.0111 6.66732 22.4187 6.66732 22.802 6.81078C22.4187 6.95423 22.0111 6.95423 21.6278 6.81078ZM39.508 6.64C39.508 6.56485 39.6175 6.56485 39.6236 6.64C39.6236 6.70831 39.508 6.71514 39.508 6.64ZM36.0524 6.55802C35.9125 6.5102 35.7604 6.53752 35.6387 6.63316C35.5657 6.68781 35.4927 6.76979 35.4136 6.7288C35.3224 6.68098 35.3345 6.50337 35.4136 6.4214C35.4927 6.34625 35.5961 6.34625 35.6935 6.34625C35.8395 6.34625 36.0159 6.38724 36.0585 6.55802L36.0524 6.55802ZM32.5968 6.45555C32.4995 6.55802 32.3596 6.59218 32.2379 6.54436C32.1101 6.59218 31.9702 6.55802 31.8729 6.44872C32.098 6.33259 32.3657 6.33259 32.5908 6.44872L32.5968 6.45555ZM29.9869 6.46921C29.6584 6.56485 29.3238 6.59218 28.9892 6.54436C28.9709 6.44872 29.0683 6.39407 29.1473 6.38041C29.4272 6.33942 29.7192 6.36674 29.9869 6.46921ZM28.7032 6.67415C28.3382 6.76296 27.9549 6.75613 27.5899 6.66049C27.7785 6.56485 27.961 6.44189 28.1679 6.41456C28.3686 6.3804 28.5998 6.46238 28.7032 6.68098L28.7032 6.67415ZM25.2537 6.64682C25.3511 6.48288 25.5944 6.5102 25.6674 6.69464L25.6005 6.71514C25.4849 6.7493 25.3572 6.7288 25.2537 6.64682ZM24.9435 6.53069C24.9435 6.53069 24.9435 6.55802 24.9435 6.57168C24.9435 6.70831 24.7184 6.76296 24.7062 6.60584L24.9009 6.52386L24.9435 6.53752L24.9435 6.53069ZM23.459 6.70148L23.459 6.72197C23.459 6.89275 23.2157 6.93374 23.1792 6.76979C23.313 6.76979 23.4468 6.68781 23.532 6.55119C23.605 6.59218 23.5259 6.76296 23.459 6.70148ZM20.5571 6.70148C20.6848 6.67415 20.8369 6.65366 20.9282 6.77662C20.9464 6.80395 20.9525 6.8381 20.9525 6.87226C20.9525 6.99522 20.8491 7.13184 20.7761 7.03621C20.6422 6.87226 20.4232 6.87909 20.2468 6.95423C20.0704 7.02938 19.9061 7.166 19.7236 7.22065C19.6992 7.22748 19.6688 7.23431 19.6445 7.22065C19.5654 7.19333 19.5593 7.04987 19.6141 6.97473C19.6688 6.89958 19.754 6.87909 19.8331 6.8586C20.0764 6.80394 20.3198 6.7493 20.5571 6.70148ZM19.3099 6.98156C19.2551 7.03621 19.1882 7.09769 19.1213 7.0772C19.0544 7.0567 19.03 6.90641 19.103 6.89275L19.103 6.90641C19.176 6.87226 19.2673 6.90641 19.3099 6.98839L19.3099 6.98156ZM18.2026 6.98156C17.9775 7.10452 17.7342 7.17966 17.4848 7.19333C17.576 7.13184 17.6673 7.07719 17.7585 7.01571L17.7585 7.04304C17.8437 6.8586 18.081 6.82444 18.1966 6.98156L18.2026 6.98156ZM16.0247 7.06353C16.3471 7.03621 16.6695 7.06353 16.9859 7.13185C16.8095 7.20699 16.6391 7.28896 16.4627 7.36411L16.4627 7.41876C16.3532 7.34362 16.2132 7.42559 16.0794 7.43242C15.9456 7.43242 15.7874 7.26164 15.8726 7.13185C15.9091 7.0772 15.9699 7.06353 16.0307 7.06353L16.0247 7.06353ZM14.4003 7.24798C14.4672 7.20699 14.5524 7.24114 14.595 7.31629C14.5098 7.56221 14.2299 7.66468 14.0535 7.5144C14.1204 7.35728 14.2543 7.24798 14.3942 7.22748L14.3942 7.25481L14.4003 7.24798ZM13.2261 7.31629C13.3478 7.20016 13.5303 7.20016 13.6459 7.31629C13.6033 7.39826 13.5121 7.43925 13.439 7.4051C13.36 7.43925 13.2687 7.4051 13.2261 7.31629ZM12.4291 7.42559C12.0033 7.73983 11.4922 7.80131 11.0055 7.85596C10.9812 7.85596 10.9569 7.85596 10.9325 7.85596C10.8778 7.83547 10.8534 7.73983 10.8899 7.67835C10.9204 7.63053 10.9751 7.61687 11.0238 7.61003C11.4922 7.54855 11.9607 7.48707 12.4291 7.42559ZM3.13923 6.80394C2.9263 6.93374 2.70728 7.06353 2.49435 7.18649C2.42134 7.17966 2.51868 7.04987 2.59169 7.06353L2.56127 7.03621C2.67078 6.85176 2.79245 6.68781 2.93238 6.53752C2.9993 6.62633 3.07231 6.71514 3.13923 6.80394ZM3.83278 5.90905C3.6746 6.19596 3.38258 6.35991 3.10881 6.31209L3.40083 6.14814L3.42517 6.19596C3.42517 5.95687 3.6746 5.79292 3.83278 5.90905ZM6.18111 4.89119C6.12028 5.00732 5.96209 5.00732 5.90734 4.89119C5.96818 4.77506 6.12028 4.77506 6.18111 4.89119ZM8.26176 3.40197L8.24351 3.42246C8.24351 3.42246 8.24959 3.44296 8.24959 3.45662C8.24959 3.53177 8.12792 3.58641 8.10967 3.49078C8.19484 3.43613 8.26785 3.34732 8.31043 3.23802C8.38952 3.26534 8.3226 3.46345 8.25568 3.40197L8.26176 3.40197ZM9.0709 2.45926C9.0709 2.5344 8.95531 2.5344 8.95531 2.45926C8.95531 2.38411 9.06482 2.38411 9.0709 2.45926ZM12.5691 1.41407C12.1067 1.72831 11.5348 1.74197 11.0725 2.05621C10.7987 2.24065 10.4702 2.5344 10.2147 2.30897C10.7379 2.04255 11.2611 1.77613 11.7843 1.50971C12.0398 1.37991 12.3318 1.25012 12.5752 1.40724L12.5691 1.41407ZM12.9584 1.14765L12.9402 1.16814C12.9402 1.16814 12.9463 1.18864 12.9463 1.2023C12.9463 1.27745 12.8246 1.33209 12.8063 1.24329C12.8976 1.18864 12.9645 1.09983 13.0071 0.990529C13.0862 1.01102 13.0193 1.21596 12.9523 1.15448L12.9584 1.14765ZM13.5729 0.89489L13.579 0.908557C13.579 0.922219 13.5607 0.929049 13.5425 0.929049C13.5242 0.929049 13.506 0.929047 13.506 0.89489C13.506 0.840241 13.5668 0.812918 13.6155 0.812918L13.6276 0.812918C13.6763 0.512343 14.017 0.368884 14.1995 0.56016C14.0231 0.758267 13.798 0.874402 13.5607 0.888064L13.5729 0.89489Z" fill="#00A9BD"/>
</svg>
