<svg width="256" height="8" viewBox="0 0 256 8" fill="none" xmlns="http://www.w3.org/2000/svg">
<path d="M207.24 0.711133C195.302 0.450977 185.12 0.138789 174.797 0.0347275C166.932 -0.0519906 158.926 0.0347294 151.061 0.17348C138.982 0.39895 126.974 0.763169 114.966 0.988639C99.0949 1.28348 83.2244 1.47427 67.3538 1.8038C61.8061 1.90786 56.3283 2.25474 50.9211 2.53224C47.761 2.68833 44.6711 3.03521 41.4408 3.13927C27.9578 3.59021 15.458 4.90833 2.60701 5.86224C1.41321 5.94896 0.289475 6.50397 0.00857605 6.88553C-0.131866 7.09365 1.48343 7.5099 2.60701 7.59662C4.78395 7.7874 7.17172 7.90881 9.4189 7.89146C16.3711 7.87412 23.3934 7.83943 30.3455 7.68333C39.6151 7.45786 48.8144 7.09365 58.0138 6.83349C61.2441 6.74677 64.5445 6.78146 67.7748 6.7988C74.727 6.83349 81.7496 6.93755 88.7018 6.92021C104.572 6.86817 120.443 6.74676 136.314 6.66004C147.549 6.60801 158.715 6.59067 169.951 6.57332C186.313 6.55598 202.676 6.52129 219.038 6.60801C229.571 6.66004 239.262 5.77551 249.164 5.11644C251.271 4.97769 253.167 4.5441 254.782 4.14519C256.748 3.65956 256.116 3.08722 254.431 2.6016C253.869 2.42816 253.096 2.22003 252.254 2.168C243.195 1.64769 234.627 0.607066 225.077 0.676442C218.686 0.745817 212.156 0.711132 207.24 0.711133Z" fill="#FFE093"/>
</svg>
