<svg width="42" height="39" viewBox="0 0 42 39" fill="none" xmlns="http://www.w3.org/2000/svg">
<path d="M0.600391 19.2542C0.600391 8.63056 9.72039 0.0412598 21.0004 0.0412598C32.2804 0.0412598 41.4004 8.63056 41.4004 19.2542C41.4004 29.8778 32.2804 38.4671 21.0004 38.4671C9.72039 38.4671 0.600391 29.8778 0.600391 19.2542ZM39.0004 19.2542C39.0004 9.87375 30.9604 2.3016 21.0004 2.3016C11.0404 2.3016 3.00039 9.87375 3.00039 19.2542C3.00039 28.6346 11.0404 36.2067 21.0004 36.2067C30.9604 36.2067 39.0004 28.6346 39.0004 19.2542Z" fill="white"/>
<path d="M18.9612 28.6345L28.9213 19.254L18.9612 9.87362L20.6413 8.29138L32.2812 19.254L20.6413 30.2167L18.9612 28.6345Z" fill="white"/>
<path d="M30.5996 18.1239V20.3842H10.1996V18.1239H30.5996Z" fill="white"/>
</svg>
