<svg xmlns="http://www.w3.org/2000/svg" style="display: none;">
    <symbol id='logo' viewBox="0 0 150 98" fill="none">
        <path d="M31.4453 55.3039C31.6878 56.3696 31.5003 57.6681 30.8961 58.4252C30.2919 59.1822 29.2825 59.2288 28.7446 58.4227C28.2162 57.6265 28.362 56.1467 29.0552 55.6224C29.0666 55.615 29.0855 55.544 29.0855 55.544C28.0476 54.8825 26.8904 55.9678 26.5287 57.3986C26.184 58.7633 26.4624 60.292 27.0211 61.4166C29.0647 65.5179 34.0116 64.3615 35.8923 60.3239C37.809 56.2079 36.3393 51.0703 33.2541 48.8922C30.6991 47.0915 27.5381 46.942 24.7181 47.3855C20.6897 48.02 16.165 50.0266 12.1025 52.3785C12.7787 48.8505 14.4756 39.766 14.7711 37.8378C15.0988 39.7268 16.451 46.7191 16.8052 48.4635C19.0476 47.4639 20.9529 46.8342 22.5154 46.4398L19.0684 30.113C16.2503 32.7492 12.7559 32.83 10.0344 33.1436V33.4107C10.0344 33.4107 11.1783 33.5332 11.8563 34.6969C12.4397 35.699 12.345 37.0269 12.1556 38.1441L9.02678 54.4586C7.96996 55.2157 6.99837 55.7767 5.76921 55.8281C4.27678 55.8918 3.87527 53.7261 4.77299 52.7412C5.39231 52.0625 6.41693 52.1752 7.07224 53.1454C7.6461 51.548 5.38095 48.9559 3.34496 49.8845C1.30898 50.813 0.369585 54.3876 1.05519 56.5534C1.68777 58.5526 3.10065 60.101 5.39799 59.9049C6.13663 59.8412 7.34307 59.2924 8.25784 58.4668L7.42451 62.8106C6.81277 66.0005 5.72186 67.9409 4.89421 68.6759C4.06656 69.4134 3.32224 69.776 3.32224 69.776V70.3714H12.3791V69.8078C10.0078 68.8401 9.50027 65.9467 10.1953 62.3133C10.2578 61.9899 10.7692 59.2973 11.3658 56.1883C11.8488 55.9163 12.5059 55.6077 12.5059 55.6077C13.6726 55.0589 14.9548 54.5101 16.2787 53.9613C19.0684 52.8441 21.9056 52.0233 24.7219 51.6215C26.9719 51.3006 30.6707 51.9229 31.4416 55.3063H31.4453V55.3039Z" fill="currentColor"/>
        <path d="M44.6671 55.3357V55.2402C44.6671 55.1373 44.6614 55.0368 44.6595 54.9339V54.9021C44.6444 54.4439 44.6159 53.9809 44.5743 53.5105C44.5648 53.3978 44.5534 53.29 44.5421 53.1797C44.1141 48.9902 42.7334 45.7464 41.7731 44.3622C40.2845 42.2233 38.4909 41.0743 35.5819 41.1355C32.8356 41.1943 27.6784 41.1551 26.5629 41.1404V41.4075C26.5629 41.4075 28.9455 42.2356 28.9928 44.5655C28.9966 44.8007 29.0023 45.2613 29.0061 45.891C30.8167 46.1164 32.4152 46.7142 33.775 47.6721C34.0004 47.8314 34.2182 48.0053 34.4284 48.1891V43.7644C34.4284 42.9681 35.0042 42.2968 35.8887 42.9191C37.6027 44.7223 39.4379 48.4635 39.5572 55.3039C39.5572 55.4533 39.561 55.6003 39.561 55.7473C39.561 55.8943 39.561 56.0413 39.5572 56.1908C39.4398 63.0312 37.6027 66.7723 35.8887 68.5755C35.0042 69.1978 34.4284 68.529 34.4284 67.7303V64.0577C33.347 64.8858 32.0951 65.3587 30.8243 65.3587C30.186 65.3587 29.5762 65.2337 29.008 65.001C29.0042 65.7776 28.9985 66.3411 28.9947 66.6131C28.9815 67.3309 28.847 67.9508 28.5194 68.4898C26.4019 66.5812 26.1084 63.1831 25.2087 59.1455L23.9417 53.1405C22.0553 53.4713 20.097 54.0029 18.0913 54.7208C18.6557 57.4917 19.1197 59.7727 19.1197 59.7727C19.2959 60.6424 19.4682 61.4901 19.6349 62.3035C20.3716 65.9246 19.8224 68.8328 17.4512 69.8005V70.364C17.4512 70.364 34.2883 70.3346 35.5856 70.364C38.4966 70.4253 40.2883 69.2762 41.7769 67.1374C42.7391 65.7531 44.1178 62.5093 44.5459 58.3198C44.5572 58.2096 44.5667 58.0993 44.5781 57.9915C44.6197 57.5187 44.6481 57.0556 44.6633 56.5975V56.5656C44.6671 56.4627 44.669 56.3598 44.6709 56.2594V56.1638C44.6709 56.083 44.6709 55.9997 44.6747 55.9188V55.5807C44.6747 55.4999 44.6747 55.419 44.6709 55.3357H44.6671Z" fill="currentColor"/>
        <path d="M98.2213 37.3551C87.691 28.8977 82.1929 41.133 88.8672 43.7374C87.3975 41.2825 90.0736 35.8337 96.263 40.2927V59.7481C96.2838 64.4766 94.3975 64.2659 94.1702 64.2806V64.5501C97.763 65.8903 100.808 67.985 103.738 70.1459V69.7662C103.119 69.215 101.558 67.8405 101.646 64.2537V43.7839C106.11 45.543 111 44.7468 111.316 38.4135C107.841 44.2396 102.326 40.6504 98.2232 37.3551H98.2213Z" fill="currentColor"/>
        <path d="M136.483 71.1896C136.358 70.93 136.239 70.6629 136.129 70.3934C135.905 69.8593 135.714 69.3276 135.566 68.8033C135.186 67.5661 134.911 66.346 134.667 65.4199C133.261 60.1156 131.328 57.9939 129.686 57.1462C131.013 56.7934 134.203 55.3161 134.203 49.2646C134.203 41.6206 129.057 41.1698 127.267 41.1698L114.523 41.1355V41.4026C115.265 41.6598 116.292 42.532 116.292 44.198C116.292 46.1678 116.305 60.025 116.305 60.025C116.305 65.3194 115.422 67.2672 112.549 67.2672C108.936 67.2672 109.135 62.5044 109.135 59.9123V44.9305C108.142 45.5504 106.939 45.8812 105.563 45.8812C105.053 45.8812 104.529 45.8346 103.994 45.7488C104.004 50.7248 104.006 60.6742 104.006 60.6816C104.006 62.5705 103.93 64.4987 104.413 66.3068C104.767 67.6323 105.383 68.7568 106.381 69.602L106.466 69.678C109.08 72.0422 114.032 71.4837 115.019 70.8614C115.148 70.8075 115.26 70.7462 115.366 70.6849C115.447 70.6409 115.523 70.5967 115.591 70.5502C116.691 69.798 117.504 68.5608 117.953 67.0663C118.449 65.4174 118.508 61.4435 118.506 59.6942C118.506 59.6942 118.508 45.6753 118.511 44.198C118.511 43.4703 118.818 42.8284 119.218 42.3384H119.235C120.379 42.679 120.498 44.8938 120.498 46.5965L120.519 64.0871C120.519 65.1308 120.523 66.3362 120.527 67.4142L120.523 67.3922C120.493 71.3391 120.627 75.656 118.909 77.3269C118.496 77.7287 117.894 78.1158 117.159 77.8928C115.082 77.2607 115.042 73.6617 116.945 72.8409C113.479 71.4273 111.332 75.0729 112.689 77.7458C112.229 77.5572 111.75 77.3416 111.246 77.0844C105 73.4216 97.68 65.4174 89.1024 64.8C82.9262 64.3541 77.0721 68.1345 77.8618 75.7883C78.6062 83.0697 88.2482 83.2338 86.1743 74.3894C86.144 77.322 82.0531 78.0986 82.4073 73.7817C82.8637 68.2031 92.3789 68.6392 95.9471 70.903C89.4565 72.1427 93.8883 83.5695 98.4205 77.8659C94.0872 76.5405 97.4812 70.9789 102.186 73.5931C106.475 75.9769 108.224 77.1995 110.754 78.7994C113.748 80.6932 125.722 85.5271 125.722 69.3987V69.357L125.714 58.1948C126.032 58.1728 126.661 58.3492 127.474 59.6942C127.487 59.7163 127.5 59.7408 127.513 59.7653C128.082 60.9584 128.392 62.4456 128.731 63.722C128.974 64.6383 129.225 65.5498 129.481 66.4587C129.493 66.5028 129.502 66.5493 129.513 66.591C129.525 66.6375 129.546 66.6841 129.559 66.7331C129.701 67.2353 129.841 67.7352 129.987 68.235C130.354 69.4894 132.379 77.1187 139.739 75.9916C140.945 75.8079 142.871 74.7225 143.576 73.2207C142.54 73.892 141.278 74.2031 140.254 74.2031C138.489 74.2031 137.316 72.8826 136.493 71.1921H136.483V71.1896ZM129.451 50.127C129.451 56.0928 126.741 56.595 126.188 56.1785C125.769 55.8649 125.707 55.0393 125.707 54.0274V45.2441C125.707 44.2323 125.769 43.4066 126.188 43.093C126.741 42.6765 129.451 43.1812 129.451 49.1445V50.127Z" fill="currentColor"/>
        <path d="M85.3237 27.3543C85.6078 27.4743 85.9998 27.4204 86.1096 27.075C86.5509 25.2203 86.4922 23.0643 86.5509 20.9892C86.5509 20.7932 86.6456 20.4183 86.7384 20.5849C87.4165 22.2558 88.104 23.7478 88.8464 25.3011C89.2252 26.0876 89.5604 26.8422 90.2649 26.7908C90.9581 26.6707 91.5225 25.9847 91.8369 25.2595C92.6267 22.3587 92.121 18.9728 90.9884 16.5522C90.5793 15.7486 90.1059 14.7 89.3521 14.4575C89.0093 14.3987 89.0471 15.0038 89.1286 15.3444C89.5396 17.5592 90.1684 19.698 90.3274 22.0353C90.3578 22.518 90.4828 23.1623 90.2309 23.569C88.8786 21.4351 88.0869 18.8944 86.4543 17.0373C86.1968 16.7654 85.8805 17.0422 85.7309 17.4048C84.9752 19.3771 84.6835 21.5527 84.568 23.8532C84.5055 25.0807 84.3142 26.7148 85.3218 27.3591V27.3543H85.3237Z" fill="currentColor"/>
        <path d="M75.2541 20.3032C75.3412 20.6976 75.6935 21.1117 76.0098 21.2293C78.1158 21.8344 80.8242 21.1117 82.6158 22.9247C82.8374 23.2848 82.6386 23.6695 82.3658 23.8508C80.7011 24.7377 78.9321 25.3673 76.9795 24.843C76.7162 24.7548 76.3242 24.3996 76.4511 24.0517C77.2351 22.5204 78.559 24.0125 79.5344 24.2134C80.0211 24.3481 81.1083 24.1742 81.6423 23.449C81.8109 23.0398 81.22 22.7875 80.8242 22.6429C79.4378 22.1603 77.4889 21.5943 76.1992 22.7238C75.8317 23.0398 75.5382 24.0125 75.7882 24.7793C76.8582 26.9966 78.9113 27.7414 80.8242 27.3592C82.1253 27.0995 83.6878 26.5139 84.0022 24.6201C84.1518 23.422 84.0969 22.1211 83.309 21.2734C81.4851 19.7029 78.8677 20.5482 76.8582 19.502C76.7939 19.382 76.8355 19.3403 76.9529 19.2619C79.0931 18.4142 81.612 18.7376 83.8147 18.0541C84.131 17.9291 84.4302 17.2774 84.2882 16.9663C83.9719 16.5596 83.5628 16.4934 83.1234 16.4003C80.4567 15.8221 77.4548 15.9985 75.5382 18.3775C75.2011 18.8405 75.2219 19.7078 75.2541 20.313V20.3032Z" fill="currentColor"/>
        <path d="M92.6892 25.5437C92.9259 26.6413 93.3388 27.8247 93.9505 28.0035C95.9013 28.4862 97.5073 27.0774 98.9827 25.6638C99.2384 25.3306 98.7498 24.3212 98.5755 24.2918C97.2535 24.0884 96.0244 24.8161 94.7043 24.7769C94.8312 23.9708 94.9903 23.2799 95.3066 22.5939C96.3842 22.3906 97.9903 22.6797 98.6361 22.0329C98.8255 21.7536 98.7479 20.8691 98.5755 20.7442C97.7554 20.3816 96.6835 20.5188 95.8615 20.5775C95.9922 20.0386 96.1304 19.4359 96.2782 18.8895C96.9695 18.9704 97.6626 18.914 98.2914 18.8454C98.9638 18.7768 99.7725 18.9263 100.242 18.2427C100.38 17.8973 99.8501 16.9614 99.5509 16.6723C99.2517 16.3807 99.1229 16.2558 98.9524 16.2264C97.7005 16.001 95.0471 16.6723 93.1929 17.0324C92.9411 17.0716 93.0036 17.3558 93.0661 17.5984C93.2233 18.5661 94.0414 18.4044 94.5755 18.7695C94.3558 19.4138 94.2327 20.0974 93.9145 20.7025C93.6342 20.825 93.1589 20.7417 93.1286 21.3077C93.1001 21.6507 93.3161 21.8761 93.2952 22.3293C93.0017 23.2873 92.4941 24.2942 92.6873 25.5413H92.6892V25.5437Z" fill="currentColor"/>
        <path d="M73.2708 16.3513C72.9204 16.3121 72.8011 16.9932 72.7367 17.3191C72.4526 19.7372 72.3352 22.4396 72.3901 25.0611C72.4128 26.0386 72.2973 27.3567 73.2405 27.5993C73.6174 27.7193 74.32 27.5993 74.375 27.2759C74.5625 24.2134 74.3087 20.7858 74.1231 17.6425C74.1041 17.3191 73.7746 16.513 73.2727 16.3513H73.2708Z" fill="currentColor"/>
        <path d="M47.3981 7.68565C47.5553 7.5656 47.8375 7.5656 47.8697 7.28385C47.65 6.6787 47.0212 6.88205 46.6746 6.55865C46.864 6.3161 47.1481 6.39695 47.3678 6.23525C53.5988 5.06905 59.7352 7.53375 64.6159 12.0417C67.1973 14.4256 69.6538 17.9658 68.8034 22.2362C67.6897 26.3644 63.3261 26.999 59.9265 26.9549C59.1708 26.9426 58.5212 26.7907 57.8488 26.4698C57.8716 23.8948 57.8318 20.6976 57.7958 19.0536C59.1973 18.9483 61.9076 19.4971 63.703 20.504C64.0496 20.7931 63.042 21.6702 62.6632 22.1186C62.4549 22.4346 63.2219 22.736 63.7333 22.6821C64.5193 22.5179 65.1822 21.7143 65.4966 20.7858C65.7163 19.9013 65.3848 19.208 64.9587 18.6102C63.0401 16.513 60.4 16.5228 57.8185 16.4444C57.7901 15.2806 57.7712 13.5436 57.5988 12.4974C57.4265 11.4562 57.0288 10.9931 56.4322 10.8314C55.9587 11.5174 55.8829 12.4068 55.8015 13.3304C55.7011 14.4574 55.6083 15.6824 55.5193 16.7163C55.5193 16.7163 54.114 17.0691 53.2844 17.319C52.4549 17.5714 49.1973 18.9091 49.4757 21.0283C49.8451 22.9124 52.1822 25.1835 53.7882 26.5114C54.311 26.9426 54.8432 27.3224 55.4265 27.6776C55.4928 28.6552 55.614 29.6107 56.1178 30.38C56.2807 30.5711 56.8488 30.4951 57.2844 30.38C57.8185 30.0982 57.8337 29.3608 57.8829 28.8071C58.4454 28.9345 59.114 29.1354 60.0894 29.2922C63.9928 29.9145 68.7712 28.4861 70.9132 23.4881C72.7068 18.691 69.5913 14.0409 67.2541 11.4488C66.9265 11.0887 65.7655 9.87595 65.1519 9.3786C60.042 5.2675 53.4435 2.3667 47.0212 4.7432C46.203 5.1058 45.8242 6.19605 45.6992 7.16135C46.1102 7.8057 46.739 7.68565 47.4 7.68565H47.3981ZM55.3602 25.502C53.4644 24.7768 51.4587 23.4073 50.1348 21.1508C49.8242 20.5212 50.9852 20.1414 51.5515 19.9381C52.8015 19.4922 54.1329 19.2937 55.4871 19.2129C55.3735 21.4497 55.3488 23.934 55.3602 25.502Z" fill="currentColor"/>
        <path d="M71.2875 15.1043C71.8841 15.5061 72.0148 14.5996 72.3254 14.2565C74.0868 15.1434 75.7875 14.0973 77.1095 12.767C78.1493 11.64 79.4088 10.2655 78.905 8.4133C78.619 7.6881 78.0224 7.2422 77.4258 7.2422C76.8273 6.23525 75.8841 5.9143 74.9372 6.076C73.0167 6.51945 70.9088 8.0115 70.2819 10.5497C70.1247 11.5591 70.3122 12.4852 70.8803 13.1712C70.816 13.7935 70.7535 14.6608 71.2875 15.1067V15.1043ZM74.1057 10.7849C75.0262 9.63585 76.2743 8.2026 77.4542 8.6926C77.5981 8.75385 77.6796 8.82735 77.7705 9.1385C77.9788 9.8441 77.2667 10.9466 76.5906 11.466C75.5508 12.1912 74.405 12.7498 73.0849 12.5513C73.2554 11.929 73.5887 11.4268 74.1057 10.7873V10.7849ZM72.1379 9.4178C72.566 8.8788 73.1758 8.3692 73.8046 8.41085C72.9201 9.2561 72.172 10.3145 71.5697 11.4758C71.2535 10.7506 71.7591 10.0229 72.136 9.4178H72.1379Z" fill="currentColor"/>
        <path d="M100.716 25.6221C99.8357 28.6037 99.08 31.6687 98.9209 35.0129C98.955 35.8606 99.4891 36.5858 100.057 37.0317C100.245 37.1493 100.697 37.4727 100.749 37.191C101.19 33.9692 101.819 30.8626 102.697 27.8393C103.531 27.9765 104.042 27.9496 105.152 27.3199C107.042 26.1513 108.838 23.6106 108.934 20.8299C108.961 19.3378 108.523 17.9242 107.517 17.0789C107.192 16.8192 106.857 16.9442 106.54 17.1206C104.588 18.5734 102.233 21.9348 101.692 23.4048C101.603 20.5481 103.487 18.7327 103.644 16.1136C103.648 15.4595 102.961 16.1651 102.733 16.5546C101.095 19.0561 99.3641 22.3611 100.716 25.6245V25.6221ZM107.294 19.0928C107.546 18.7817 107.705 20.3423 107.642 20.9891C107.421 22.8805 105.599 24.4853 104.682 24.816C104.375 24.9263 104.239 24.9263 103.898 24.9361C104.417 23.3901 105.817 20.7441 107.296 19.0904H107.294V19.0928Z" fill="currentColor"/>
        <path d="M69.1381 68.4897C68.7101 68.2374 68.6457 67.5808 68.6457 66.7747V56.7395C68.6457 56.0976 68.729 55.8404 68.9753 55.7081C69.4298 55.4606 71.9317 56.3769 72.8105 61.3676H72.9525V47.9783H72.8105C71.9317 52.9714 69.4317 53.8853 68.9753 53.6378C68.729 53.5031 68.6457 53.2458 68.6457 52.6064V44.737C68.6457 43.931 68.7139 43.2866 69.1381 43.022C69.873 42.5663 73.7366 43.196 75.7972 50.0388H75.9393V41.1306L56.4355 41.1649V41.4565C58.2196 42.1841 58.6022 44.4944 58.0775 47.2262C57.9601 47.8338 54.8578 64.19 54.6362 65.6404C54.39 64.217 51.1097 47.8387 50.9847 47.2262C50.4317 44.5018 50.8427 42.1816 52.6268 41.454V41.16H40.9961V41.4515C43.2953 42.1792 44.7707 45.2907 45.3181 47.7676L50.087 70.3591C52.4696 70.3517 55.8844 70.3591 55.8844 70.3591L60.3029 47.2262C60.9715 44.2225 61.4355 42.9656 62.2385 42.238C62.9014 42.8774 63.3029 43.7937 63.3313 45.3862L63.3351 54.7134V56.6048L63.3313 65.9319C63.2878 68.4309 62.3256 69.2664 60.8787 69.9744V70.19H60.8806V70.3591H76.1665V59.4076H76.0245C73.9772 66.6645 70.0984 69.0532 69.1362 68.4848V68.4897H69.1381Z" fill="currentColor"/>
        <path d="M78.5305 68.0634C78.5836 67.985 78.6347 67.9042 78.6896 67.8283C79.6404 66.5004 80.9093 65.4395 82.3942 64.6873L82.3885 64.3444C80.5949 64.7339 80.9112 60.4243 80.9131 58.8L80.8923 50.4896C80.8923 50.4896 84.0154 57.6485 86.5987 63.4599C87.4264 63.3692 88.2805 63.3497 89.1536 63.4109C90.5949 63.5138 91.9983 63.7857 93.3639 64.2635C93.362 57.5946 93.3582 44.764 93.3582 44.0559C93.3582 42.5026 93.7616 41.8607 94.6101 41.4123V41.1649L89.8942 41.1477L89.8904 41.4148C90.6328 41.672 91.2521 42.3997 91.2521 43.8329C91.2559 45.8027 91.2597 55.7252 91.2597 55.7252V58.0919L83.4756 41.1306H76.451L76.4453 41.3756C77.0457 41.5177 78.5324 41.9048 78.5362 45.5234C78.5324 49.8428 78.5305 68.061 78.5305 68.061V68.0634Z" fill="currentColor"/>
        <path d="M148.491 59.4125C146.443 66.6694 142.564 69.0581 141.602 68.4897C141.174 68.2374 141.11 67.5808 141.11 66.7747V56.7395C141.11 56.0976 141.193 55.8404 141.439 55.7081C141.894 55.4607 144.396 56.3769 145.275 61.3676H145.417V47.9783H145.275C144.396 52.9714 141.896 53.8853 141.439 53.6378C141.193 53.5031 141.11 53.2458 141.11 52.6064V44.737C141.11 43.931 141.178 43.2866 141.602 43.022C142.337 42.5663 146.201 43.196 148.261 50.0388H148.403V41.1306H133.345V41.3462C134.826 42.0689 135.801 44.1808 135.801 46.817V65.4395C135.839 65.589 135.879 65.7433 135.919 65.905C136.102 66.6375 136.311 67.4681 136.563 68.2864L136.574 68.3231C136.699 68.7641 136.866 69.237 137.07 69.727C137.163 69.9524 137.256 70.1607 137.35 70.3615H148.633V59.4101H148.491V59.4125Z" fill="currentColor"/>
    </symbol>
    <symbol id='telegram' viewBox="0 0 24 25" fill="none">
        <path d="M21.6 12.5C21.6 15.0461 20.5886 17.4879 18.7882 19.2882C16.9879 21.0886 14.5461 22.1 12 22.1C9.45392 22.1 7.01212 21.0886 5.21178 19.2882C3.41143 17.4879 2.4 15.0461 2.4 12.5C2.4 9.95392 3.41143 7.51212 5.21178 5.71178C7.01212 3.91143 9.45392 2.9 12 2.9C14.5461 2.9 16.9879 3.91143 18.7882 5.71178C20.5886 7.51212 21.6 9.95392 21.6 12.5ZM12 24.5C18.6276 24.5 24 19.1276 24 12.5C24 5.8724 18.6276 0.5 12 0.5C5.3724 0.5 0 5.8724 0 12.5C0 19.1276 5.3724 24.5 12 24.5ZM12.4296 9.3584C11.2632 9.844 8.9308 10.8492 5.4324 12.374C4.8636 12.5996 4.566 12.8204 4.5396 13.0364C4.494 13.4012 4.9512 13.5452 5.574 13.7408L5.8356 13.8248C6.4476 14.024 7.2732 14.2568 7.7016 14.2664C8.0904 14.2744 8.524 14.1144 9.0024 13.7864C12.2712 11.5784 13.9584 10.4628 14.064 10.4396C14.1396 10.4228 14.2428 10.4012 14.3124 10.4636C14.3832 10.526 14.376 10.6436 14.3688 10.676C14.3232 10.8692 12.528 12.5384 11.5992 13.4012C11.324 13.6604 11.0508 13.9216 10.7796 14.1848C10.2108 14.7332 9.7836 15.1448 10.8036 15.8168C11.8368 16.4984 12.8796 17.1776 13.8876 17.8964C14.3844 18.2516 14.8308 18.5684 15.3828 18.5192C15.7032 18.4892 16.0344 18.188 16.2024 17.288C16.6008 15.164 17.382 10.5584 17.562 8.66C17.5725 8.50253 17.5656 8.34438 17.5416 8.1884C17.5274 8.06286 17.4666 7.94723 17.3712 7.8644C17.2272 7.7468 17.0052 7.7228 16.9068 7.724C16.4556 7.7324 15.7632 7.9724 12.4308 9.3584" fill="currentColor" />
    </symbol>
    <symbol id='watsapp' viewBox="0 0 24 25" fill="none">
        <path d="M20.5025 3.99206C19.3967 2.88099 18.0796 2.00002 16.6282 1.4005C15.1767 0.800974 13.6198 0.494884 12.0482 0.500065C5.46332 0.500065 0.0964826 5.84005 0.0964826 12.392C0.0964826 14.492 0.651256 16.532 1.68844 18.332L0 24.5L6.33166 22.844C8.0804 23.792 10.0462 24.296 12.0482 24.296C18.6332 24.296 24 18.956 24 12.404C24 9.22404 22.7578 6.23605 20.5025 3.99206ZM12.0482 22.28C10.2633 22.28 8.51457 21.8 6.98291 20.9L6.6211 20.684L2.85829 21.668L3.8593 18.02L3.61809 17.648C2.62619 16.0725 2.09961 14.2512 2.09849 12.392C2.09849 6.94405 6.5608 2.50406 12.0362 2.50406C14.6894 2.50406 17.1859 3.53606 19.0553 5.40805C19.981 6.32469 20.7147 7.4151 21.2136 8.61604C21.7126 9.81698 21.9669 11.1045 21.9618 12.404C21.9859 17.852 17.5236 22.28 12.0482 22.28ZM17.4995 14.888C17.198 14.744 15.7266 14.024 15.4613 13.916C15.1839 13.82 14.991 13.772 14.7859 14.06C14.5809 14.36 14.0141 15.032 13.8452 15.224C13.6764 15.428 13.4955 15.452 13.194 15.296C12.8925 15.152 11.9276 14.828 10.794 13.82C9.90151 13.028 9.31055 12.056 9.12965 11.756C8.9608 11.456 9.10553 11.3 9.26231 11.144C9.39497 11.012 9.56382 10.796 9.70854 10.628C9.85327 10.46 9.91357 10.328 10.01 10.136C10.1065 9.93204 10.0583 9.76404 9.98593 9.62004C9.91357 9.47604 9.31055 8.01204 9.06935 7.41205C8.82814 6.83605 8.57487 6.90805 8.39397 6.89605H7.81507C7.61005 6.89605 7.29648 6.96805 7.01909 7.26805C6.75377 7.56805 5.98191 8.28804 5.98191 9.75204C5.98191 11.216 7.05528 12.632 7.2 12.824C7.34472 13.028 9.31055 16.028 12.3015 17.312C13.0131 17.624 13.5678 17.804 14.002 17.936C14.7136 18.164 15.3648 18.128 15.8834 18.056C16.4623 17.972 17.6563 17.336 17.8975 16.64C18.1508 15.944 18.1508 15.356 18.0663 15.224C17.9819 15.092 17.801 15.032 17.4995 14.888Z" fill="currentColor" />
    </symbol>
    <symbol id='instagram' viewBox="0 0 25 25" fill="none" >
        <path d="M12.5007 9.375C11.6719 9.375 10.8771 9.70424 10.291 10.2903C9.70496 10.8763 9.37572 11.6712 9.37572 12.5C9.37572 13.3288 9.70496 14.1237 10.291 14.7097C10.8771 15.2958 11.6719 15.625 12.5007 15.625C13.3295 15.625 14.1244 15.2958 14.7104 14.7097C15.2965 14.1237 15.6257 13.3288 15.6257 12.5C15.6257 11.6712 15.2965 10.8763 14.7104 10.2903C14.1244 9.70424 13.3295 9.375 12.5007 9.375ZM12.5007 7.29167C13.8821 7.29167 15.2068 7.8404 16.1836 8.81715C17.1603 9.79391 17.709 11.1187 17.709 12.5C17.709 13.8813 17.1603 15.2061 16.1836 16.1828C15.2068 17.1596 13.8821 17.7083 12.5007 17.7083C11.1194 17.7083 9.79462 17.1596 8.81787 16.1828C7.84112 15.2061 7.29238 13.8813 7.29238 12.5C7.29238 11.1187 7.84112 9.79391 8.81787 8.81715C9.79462 7.8404 11.1194 7.29167 12.5007 7.29167ZM19.2715 7.03125C19.2715 7.37659 19.1344 7.70778 18.8902 7.95196C18.646 8.19615 18.3148 8.33334 17.9695 8.33334C17.6241 8.33334 17.2929 8.19615 17.0488 7.95196C16.8046 7.70778 16.6674 7.37659 16.6674 7.03125C16.6674 6.68592 16.8046 6.35473 17.0488 6.11054C17.2929 5.86635 17.6241 5.72917 17.9695 5.72917C18.3148 5.72917 18.646 5.86635 18.8902 6.11054C19.1344 6.35473 19.2715 6.68592 19.2715 7.03125ZM12.5007 4.16667C9.92363 4.16667 9.5028 4.17396 8.30384 4.22709C7.48717 4.26563 6.93926 4.375 6.43092 4.57292C6.00575 4.72955 5.62126 4.97983 5.30592 5.30521C4.98017 5.62044 4.72953 6.00494 4.57259 6.43021C4.37467 6.94063 4.2653 7.4875 4.2278 8.30313C4.17363 9.45313 4.16634 9.85521 4.16634 12.5C4.16634 15.0781 4.17363 15.4979 4.22676 16.6969C4.2653 17.5125 4.37467 18.0615 4.57155 18.5688C4.74863 19.0219 4.95697 19.3479 5.3028 19.6938C5.65384 20.0438 5.97988 20.2531 6.4278 20.426C6.94238 20.625 7.4903 20.7354 8.3028 20.7729C9.4528 20.8271 9.85488 20.8333 12.4997 20.8333C15.0778 20.8333 15.4976 20.826 16.6965 20.7729C17.5111 20.7344 18.059 20.625 18.5684 20.4281C18.9936 20.2715 19.3781 20.0212 19.6934 19.6958C20.0445 19.3458 20.2538 19.0198 20.4268 18.5708C20.6247 18.0583 20.7351 17.5104 20.7726 16.6958C20.8268 15.5469 20.833 15.1438 20.833 12.5C20.833 9.92292 20.8257 9.50209 20.7726 8.30313C20.734 7.48854 20.6236 6.93854 20.4268 6.43021C20.2701 6.00504 20.0198 5.62054 19.6945 5.30521C19.3792 4.97945 18.9947 4.72882 18.5695 4.57188C18.059 4.37396 17.5111 4.26459 16.6965 4.22709C15.5476 4.17292 15.1455 4.16667 12.4997 4.16667M12.4997 2.08334C15.3299 2.08334 15.683 2.09375 16.7945 2.14584C17.9028 2.19792 18.659 2.37188 19.3226 2.63021C20.0101 2.89479 20.5893 3.25313 21.1684 3.83125C21.6983 4.35181 22.1082 4.98174 22.3695 5.67709C22.6268 6.34063 22.8018 7.09688 22.8538 8.20625C22.9028 9.31667 22.9163 9.66979 22.9163 12.5C22.9163 15.3302 22.9059 15.6833 22.8538 16.7938C22.8018 17.9042 22.6268 18.6583 22.3695 19.3229C22.1082 20.0183 21.6983 20.6482 21.1684 21.1688C20.6479 21.6986 20.0179 22.1085 19.3226 22.3698C18.659 22.6271 17.9028 22.8021 16.7945 22.8542C15.683 22.9031 15.3299 22.9167 12.4997 22.9167C9.66947 22.9167 9.31634 22.9063 8.20488 22.8542C7.09655 22.8021 6.34134 22.6271 5.67676 22.3698C4.98142 22.1085 4.35148 21.6986 3.83092 21.1688C3.30104 20.6482 2.89115 20.0183 2.62988 19.3229C2.37155 18.6594 2.19759 17.9031 2.14551 16.7938C2.09551 15.6833 2.08301 15.3302 2.08301 12.5C2.08301 9.66979 2.09342 9.31667 2.14551 8.20625C2.19759 7.09584 2.37155 6.34167 2.62988 5.67709C2.89115 4.98174 3.30104 4.35181 3.83092 3.83125C4.35148 3.30136 4.98142 2.89148 5.67676 2.63021C6.3403 2.37188 7.09551 2.19792 8.20488 2.14584C9.31738 2.09688 9.67051 2.08334 12.5007 2.08334" fill="currentColor" />
    </symbol>
    <symbol id='icon-check' viewBox="0 0 24 24" fill="none">
        <path d="M12 -6.10352e-05C9.62663 -6.10352e-05 7.30655 0.703727 5.33316 2.0223C3.35977 3.34088 1.8217 5.21502 0.913451 7.40774C0.00519937 9.60045 -0.232441 12.0132 0.230582 14.341C0.693605 16.6688 1.83649 18.807 3.51472 20.4852C5.19295 22.1634 7.33115 23.3063 9.65892 23.7694C11.9867 24.2324 14.3995 23.9947 16.5922 23.0865C18.7849 22.1782 20.6591 20.6402 21.9776 18.6668C23.2962 16.6934 24 14.3733 24 11.9999C24 8.81734 22.7357 5.76509 20.4853 3.51466C18.2348 1.26422 15.1826 -6.10352e-05 12 -6.10352e-05ZM10.2857 16.7914L6 12.5057L7.36286 11.1428L10.2857 14.0656L16.6371 7.71422L18.0051 9.07365L10.2857 16.7914Z" fill="white" />
    </symbol>
</svg>